<?xml version="1.0" encoding="UTF-8" standalone="no"?>
<!-- Created with Inkscape (http://www.inkscape.org/) -->

<svg
   xmlns:dc="http://purl.org/dc/elements/1.1/"
   xmlns:cc="http://creativecommons.org/ns#"
   xmlns:rdf="http://www.w3.org/1999/02/22-rdf-syntax-ns#"
   xmlns:svg="http://www.w3.org/2000/svg"
   xmlns="http://www.w3.org/2000/svg"
   xmlns:sodipodi="http://sodipodi.sourceforge.net/DTD/sodipodi-0.dtd"
   xmlns:inkscape="http://www.inkscape.org/namespaces/inkscape"
   width="231.51369mm"
   height="175.84702mm"
   viewBox="0 0 231.51369 175.84702"
   version="1.1"
   id="svg7042"
   inkscape:version="0.92.2 5c3e80d, 2017-08-06"
   sodipodi:docname="writing.svg">
  <defs
     id="defs7036" />
  <sodipodi:namedview
     id="base"
     pagecolor="#ffffff"
     bordercolor="#666666"
     borderopacity="1.0"
     inkscape:pageopacity="0.0"
     inkscape:pageshadow="2"
     inkscape:zoom="0.7"
     inkscape:cx="565.73569"
     inkscape:cy="233.08381"
     inkscape:document-units="mm"
     inkscape:current-layer="layer7"
     showgrid="false"
     fit-margin-top="0"
     fit-margin-left="0"
     fit-margin-right="0"
     fit-margin-bottom="0"
     inkscape:window-width="1440"
     inkscape:window-height="810"
     inkscape:window-x="0"
     inkscape:window-y="23"
     inkscape:window-maximized="0" />
  <metadata
     id="metadata7039">
    <rdf:RDF>
      <cc:Work
         rdf:about="">
        <dc:format>image/svg+xml</dc:format>
        <dc:type
           rdf:resource="http://purl.org/dc/dcmitype/StillImage" />
        <dc:title></dc:title>
      </cc:Work>
    </rdf:RDF>
  </metadata>
  <g
     inkscape:groupmode="layer"
     id="layer7"
     inkscape:label="Base"
     transform="translate(146.3648,-53.495248)">
    <rect
       style="opacity:1;fill:#e3dbdb;fill-opacity:1;fill-rule:nonzero;stroke:none;stroke-width:0.33072916;stroke-linecap:round;stroke-linejoin:round;stroke-miterlimit:4;stroke-dasharray:none;stroke-dashoffset:0;stroke-opacity:1;paint-order:normal"
       id="rect8279"
       width="229.05357"
       height="59.342262"
       x="-144.76489"
       y="170" />
  </g>
  <g
     inkscape:label="Layer 1"
     inkscape:groupmode="layer"
     id="layer1"
     transform="translate(146.3648,-53.495248)">
    <g
       id="g8336"
       transform="rotate(-0.2557842,-90.485958,198.14566)">
      <path
         id="path8094"
         transform="scale(0.26458333)"
         d="m -10.298828,203.66211 c -1.45953,0 -10.829554,9.14052 -17.302734,16.87891 -5.13112,6.13402 -6.775153,5.62487 -4.632813,-1.4375 2.064211,-6.80486 2.003894,-10.68043 -0.160156,-10.26368 -1.75729,0.33843 -6.062384,13.92315 -6.507813,20.53711 -0.292033,4.33627 -1.37784,4.15909 -2.855468,-0.46484 -1.701801,-5.32542 -2.529621,-5.82944 -4.53711,-2.76563 -1.941229,2.9627 -4.47742,2.97663 -10.75,0.0606 -12.348189,-5.7406 -48.452898,-13.39579 -73.267578,-15.53515 -6.54644,-0.56439 -16.40235,-1.45759 -21.90234,-1.98438 -17.95298,-1.71951 -24.21956,-1.58845 -26.58985,0.55664 -1.52991,1.38455 -4.22562,2.0562 -9.91992,2.47461 -6.27962,0.46142 -8.47516,1.07536 -11.1543,3.11523 -4.21751,3.21117 -9.23389,5.74861 -19.32031,9.77149 -10.67137,4.25619 -14.89176,6.89913 -13.5664,8.49609 0.75925,0.91485 -0.83509,2.40279 -6.2129,5.79492 -3.97941,2.51009 -9.03632,5.30618 -11.23632,6.21485 -4.17821,1.72573 -10.5,7.15952 -10.5,9.02539 0,0.59549 -2.95053,3.99558 -6.5586,7.55469 -6.61795,6.52814 -17.62919,20.32083 -25.20898,31.57812 -5.73836,8.52247 -15.23242,24.63113 -15.23242,25.8457 0,0.55552 -2.41572,6.194 -5.36914,12.5293 -12.35827,26.50928 -12.60332,27.50876 -13.17579,54.01758 -0.40663,18.83032 1.49199,32.33001 5.9375,42.24023 1.41632,3.15735 3.10511,7.88234 3.75391,10.5 0.6488,2.61767 2.68217,7.61058 4.51758,11.09375 1.83542,3.48318 3.33403,7.08317 3.33203,8 -0.002,1.05668 -1.74131,2.35363 -4.75,3.54297 -7.18042,2.83843 -12.00723,6.26132 -13.84766,9.82032 -1.10795,2.14253 -1.81751,6.70331 -2.14062,13.7539 -0.41429,9.03972 -0.16996,11.47864 1.70703,17.04883 1.25343,3.7197 3.54754,7.92821 5.36328,9.83789 l 3.17188,3.33594 -4.13282,3.66406 c -2.27342,2.01464 -8.02589,5.91213 -12.7832,8.66211 -4.7573,2.75002 -9.98425,5.90001 -11.61523,7 -1.63098,1.09999 -6.2285,4.19954 -10.2168,6.88867 -3.9883,2.68914 -10.94203,7.33064 -15.45313,10.3125 -9.12802,6.03364 -21.29629,16.68484 -29.47265,25.79883 -2.96051,3.30002 -6.67088,7.35001 -8.24414,9 -6.75428,7.08367 -17.90374,21.38375 -29.08203,37.30078 l -12,17.08789 -50.25,0.0547 c -41.83835,0.0468 -50.25,0.28584 -50.25,1.42578 0,2.31825 5.8391,2.60976 52.75,2.62109 30.9202,0.008 45.25,0.34331 45.25,1.06055 0,0.57732 -0.74362,2.4898 -1.6543,4.25 -4.34982,8.40748 -5.50025,21.19773 -2.89453,32.19922 1.60932,6.7948 7.55054,22.59128 11.22265,29.83984 3.50937,6.92727 9.35074,12.83865 16.03321,16.22461 5.13925,2.60402 6.97919,2.96874 16.29297,3.22461 5.775,0.15855 18.60002,-0.0813 28.5,-0.5332 l 18,-0.82227 7,4.51368 c 3.85,2.48292 8.16591,5.0338 9.58984,5.66796 7.94699,3.53934 21.46797,2.28383 33.80469,-3.14062 5.93915,-2.61147 7.98345,-3.0838 10.38672,-2.39453 1.64556,0.47191 3.14795,1.01503 3.33984,1.20703 0.8793,0.87927 -52.23582,52.39455 -63.21094,61.30664 -2.64644,2.14896 -6.85967,5.82626 -9.36133,8.17187 -2.50166,2.34558 -7.68762,6.39557 -11.52539,9 -3.83777,2.6044 -7.74075,5.40938 -8.67187,6.23438 -0.93113,0.82499 -5.9842,4.15443 -11.22852,7.39844 -7.83534,4.84671 -9.37632,6.1951 -8.64453,7.5625 1.89517,3.54119 7.67824,4.21877 42.82422,5.02343 18.86586,0.43193 34.61586,1.10682 35,1.5 v 0.002 c 1.13991,1.16681 98.96568,-0.14494 135.19727,-1.8125 18.425,-0.84802 41.70457,-1.79763 51.73242,-2.11133 24.62915,-0.77004 80.514406,-5.40544 121.767576,-10.09961 7.150001,-0.81362 15.992541,-1.47448 19.650391,-1.4707 3.6578399,0.005 11.75783995,-0.86204 17.9999999,-1.92578 6.2421501,-1.06379 17.1996091,-2.61083 24.3496091,-3.43946 45.251241,-5.24432 80.223324,-19.96778 99.511724,-41.89648 5.28202,-6.00507 8.94518,-15.91703 8.95312,-24.22852 0.003,-3.30002 -0.35794,-6.57455 -0.80273,-7.27539 -0.60935,-0.96015 -5.16623,0.70382 -18.48438,6.75 -9.72143,4.41336 -18.51852,8.02539 -19.54883,8.02539 -2.573629,0 -12.023775,-10.67299 -18.628904,-21.03906 -3.920628,-6.153 -5.905044,-9.02195 -12.089844,-17.4707 -6.115188,-8.35363 -9.987515,-15.72399 -10.947265,-20.83985 l -0.701172,-3.73828 8.369141,0.0254 c 4.603241,0.0151 9.998854,-0.0122 11.990234,-0.0625 1.991369,-0.0503 4.748314,0.64748 6.126953,1.55078 3.847533,2.52091 8.569027,3.59367 11.28125,2.5625 1.67379,-0.63636 3.234046,-0.47391 5.183597,0.54297 1.53363,0.79998 4.89847,1.45795 7.47851,1.46094 2.58004,0.003 4.96867,0.45586 5.3086,1.00586 0.33992,0.55 1.74171,1 3.11523,1 1.37352,0 10.23489,1.39892 19.69141,3.10742 14.18545,2.56294 18.66322,2.99712 25.5957,2.48242 5.51917,-0.40981 8.77918,-1.11837 9.5,-2.0625 1.5091,-1.97665 5.44444,-3.31085 13.37305,-4.53515 7.24845,-1.11927 12.22461,-2.75782 12.22461,-4.02539 0,-0.43499 2.85634,-2.82841 6.3457,-5.31836 9.73811,-6.94897 15.82442,-14.3819 26.42773,-32.26953 l 9.72657,-16.40821 38.5,0.26367 c 36.48436,0.25112 44,-0.11502 44,-2.14648 0,-2.0301 -5.36053,-2.40069 -41,-2.8418 -20.625,-0.25527 -38.05598,-0.76865 -38.73633,-1.13867 -0.8513,-0.4631 -1.35808,-4.71437 -1.62695,-13.63867 -0.62601,-20.7786 -3.97517,-32.27076 -16.89258,-57.96875 -9.59428,-19.08692 -15.53459,-24.7435 -37.74414,-35.94727 -7.425,-3.74558 -16.42501,-8.75846 -20,-11.14062 -6.43192,-4.28583 -14.00221,-10.8969 -13.99805,-12.22461 10e-4,-0.37788 9.11353,-12.84716 20.25,-27.70899 11.13647,-14.86182 21.04837,-28.13683 22.02539,-29.5 0.97702,-1.36316 4.91341,-6.7535 8.74805,-11.97851 12.01699,-16.37412 18.59819,-26.29955 22.26953,-33.58984 l 3.54687,-7.04688 -1.83203,-4.09375 c -4.56812,-10.20321 -16.42955,-16.87183 -25.36328,-14.25976 -3.22019,0.94155 -5.59869,2.88674 -10.64648,8.70117 -3.575,4.11791 -6.9563,8.00537 -7.51368,8.63867 -8.22001,9.33993 -23.53877,29.92871 -37.3125,50.15039 -15.94673,23.41198 -19.18463,28.01154 -20.42187,29 -0.68842,0.55 -2.37717,2.68543 -3.75195,4.74414 -1.37478,2.05875 -2.8296,3.74622 -3.23243,3.75 -2.0051,0.0187 -26.383839,-16.55104 -42.876949,-29.14258 l -4.607422,-3.51953 6.648438,-11.07226 c 8.941361,-14.88998 14.95951,-27.80127 15.986328,-34.29688 0.926513,-5.86114 -0.115739,-22.27054 -1.966797,-30.96289 -1.45429,-6.8292 -8.346478,-20.37891 -11.710937,-23.02539 -3.182673,-2.50349 -12.896289,-2.70585 -17.816407,-0.3711 -3.0545,1.44945 -7.867463,7.71984 -9.707031,12.64649 -1.256549,3.36521 -2.364039,1.70494 -2.507812,-3.75977 -0.07974,-3.03046 -0.869388,-11.01797 -1.753907,-17.75 -0.884511,-6.73202 -1.989269,-15.84023 -2.457031,-20.24023 -0.687987,-6.47157 -2.013478,-10.67475 -6.9375,-22 -7.07069,-16.2626 -10.549291,-21.67603 -19.525391,-30.39063 -3.59375,-3.48905 -6.535156,-6.71964 -6.535156,-7.17773 0,-0.45809 0.727594,-1.23763 1.615235,-1.73437 2.70851,-1.51576 0.776255,-4.99418 -3.421875,-6.16016 -2.0308702,-0.56405 -4.59336,-1.03554 -5.6933598,-1.04688 -1.1000001,-0.0115 -2.6749999,-0.46969 -3.5,-1.01953 -1.25727,-0.83793 -0.9716751,-1.48438 1.765625,-3.98633 1.7961699,-1.64174 4.1586698,-2.98437 5.25,-2.98437 1.4498298,0 1.9843748,-0.67329 1.9843748,-2.5 v -2.5 H 0.19726562 -10.890625 l 6.0117188,-6.56055 c 3.30664,-3.60861 6.4743325,-7.88781 7.0390624,-9.50781 0.9952801,-2.85505 0.9435619,-2.92535 -1.67382808,-2.31641 -1.48515,0.34553 -5.82206882,1.91567 -9.63671872,3.48828 -3.8146404,1.57262 -7.1302404,2.66274 -7.3691404,2.42383 -1.05351,-1.0535 1.111642,-5.73436 4.826172,-10.43359 4.4537998,-5.63448 5.9785152,-8.90812 5.9785152,-12.83008 10e-8,-2.81517 -2.5235741,-6.26367 -4.5839842,-6.26367 z M -214.7168,646.80469 c 0.49819,-0.0283 1.20649,0.0483 2.12696,0.23242 1.71875,0.34379 50.13329,0.625 107.58789,0.625 H -0.5390625 l -0.7089844,4.25 c -0.3899,2.33749 -1.7531369,6.32105 -3.0292969,8.85156 l -2.3203124,4.60156 -14.3085938,0.63672 c -7.86979,0.3501 -22.408594,1.37185 -32.308594,2.27149 -10.543381,0.95815 -31.049079,1.76553 -49.499996,1.94922 -23.8534,0.2375 -35.74811,0.81379 -49,2.375 -9.62501,1.13389 -19.30001,1.97818 -21.5,1.875 -15.8713,-0.74434 -15.23651,-0.56832 -18.37696,-5.13282 -3.67762,-5.34523 -9.91082,-11.10062 -17.88476,-16.51562 -5.60863,-3.80874 -7.39904,-5.89709 -5.24024,-6.01953 z"
         style="fill:#000000;stroke-width:1.00000012"
         inkscape:connector-curvature="0" />
      <path
         id="path8092"
         d="m -58.618637,221.63774 c 5.771864,-0.13762 11.546395,-0.38217 12.832291,-0.54345 1.285894,-0.16128 4.18346,-0.45225 6.439033,-0.6466 5.636199,-0.48563 10.753121,-1.30789 15.039207,-2.41672 1.987654,-0.51422 4.149699,-1.04099 4.804543,-1.17061 0.654843,-0.12961 2.8575,-0.60097 4.894791,-1.04745 2.037292,-0.44648 4.586026,-0.92673 5.6638537,-1.06721 1.0778305,-0.14049 3.101893,-0.66184 4.4979167,-1.15858 1.3960263,-0.49673 4.56229243,-1.51302 7.0361466,-2.25842 5.2558315,-1.58364 12.594915,-4.16506 15.610417,-5.49073 1.982583,-0.87158 6.476878,-2.99536 6.727587,-3.17912 0.06215,-0.0455 -0.187728,-0.40901 -0.555284,-0.80767 -1.23231,-1.3366 -4.098576,-4.95822 -4.450321,-5.62312 -0.191444,-0.36189 -0.835803,-1.20375 -1.431906,-1.8708 -0.637966,-0.7139 -1.934663,-2.93335 -3.15209,-5.39517 -1.847472,-3.73585 -2.264087,-4.37393 -3.902604,-5.97707 -1.4906945,-1.45852 -1.8343407,-1.94875 -1.8343407,-2.61679 0,-1.08318 -0.4364275,-1.20438 -1.9699075,-0.54705 -2.0596675,0.88287 -5.1983217,3.25872 -8.49486072,6.4303 -1.69706128,1.63273 -3.23200448,3.05295 -3.41098978,3.15604 -0.1789827,0.10309 -0.5650601,0.0196 -0.8579485,-0.18556 -0.523203,-0.36647 -0.4986761,-0.47343 1.4012148,-6.11097 l 1.933739,-5.73798 -1.6428111,0.17735 c -3.8707404,0.41787 -8.9842605,0.7052 -11.5646865,0.64981 -1.752753,-0.0376 -2.991178,0.0562 -3.355369,0.25427 -1.095623,0.59576 -4.636214,0.77047 -10.119267,0.49933 -4.7234,-0.23357 -5.640769,-0.21225 -7.276042,0.16908 -1.029158,0.23999 -2.406978,0.42128 -3.061822,0.40286 -0.654843,-0.0184 -2.500312,0.15712 -4.101041,0.39007 -1.60073,0.23295 -3.483986,0.42743 -4.185018,0.43216 -1.198454,0.008 -1.263602,0.0442 -1.090531,0.60392 0.101241,0.32742 0.39306,1.01203 0.648492,1.52135 1.288269,2.56878 1.918443,6.22758 1.321024,7.66988 -0.180456,0.43566 -0.728683,1.03968 -1.218279,1.34227 -0.489598,0.30259 -1.149326,0.92872 -1.466061,1.3914 -1.510475,2.20649 -3.713753,3.60244 -5.727364,3.62874 -0.394724,0.005 -1.015336,0.17953 -1.379138,0.3875 -0.410239,0.23452 -1.432952,0.38169 -2.692803,0.3875 -1.972759,0.009 -2.050753,0.0342 -2.704314,0.86927 -0.607748,0.77656 -0.808336,0.8599 -2.069698,0.8599 -2.136063,0 -4.361097,-1.21233 -7.296448,-3.97555 l -2.433149,-2.29046 -0.787783,0.66287 c -0.480915,0.40466 -1.536412,0.83315 -2.709635,1.09999 -2.670157,0.60732 -3.524745,1.07515 -4.284628,2.34557 -1.028975,1.72031 -12.135525,12.15549 -17.090292,16.05722 -1.527969,1.20323 -3.075777,2.46007 -3.439587,2.79297 -1.27477,1.1665 -2.52169,2.09698 -3.43958,2.56669 -0.50932,0.26064 -1.51979,0.90734 -2.24547,1.43711 l -1.31943,0.96322 0.79026,0.24441 c 1.2099,0.37419 31.499426,1.27132 36.244432,1.0735 1.309687,-0.0546 7.103684,-0.21186 12.875551,-0.34947 z"
         style="fill:#ffffff;stroke-width:0.26458335"
         inkscape:connector-curvature="0" />
      <path
         id="path8090"
         d="m -13.418147,218.45606 c 18.6188406,-1.75452 21.9664336,-2.18716 28.575,-3.693 2.695702,-0.61424 9.061964,-2.69478 10.583334,-3.4587 1.244885,-0.62509 4.034872,-2.69726 5.648669,-4.19536 2.394799,-2.22312 4.180691,-5.66002 3.776953,-7.26863 l -0.162131,-0.64599 -2.448933,1.30225 c -4.196287,2.23142 -7.97705,4.12262 -8.666642,4.33518 -0.363802,0.11214 -1.256771,0.47356 -1.984375,0.80317 -1.83919,0.83317 -7.49913,3.00298 -11.909123,4.56552 -7.5124337,2.66179 -15.1839692,4.83887 -24.471085,6.94456 -3.274219,0.74237 -6.607969,1.5164 -7.408333,1.72007 l -1.455209,0.3703 2.116667,-0.12166 c 1.164167,-0.0669 4.67651,-0.36288 7.805208,-0.65771 z"
         style="fill:#dcdcdc;fill-opacity:1;stroke-width:0.26458335"
         inkscape:connector-curvature="0" />
      <path
         id="path8088"
         d="m -61.64828,196.73257 c 0.264871,-0.43803 0.353128,-0.94406 0.241927,-1.38712 -0.184785,-0.73624 -4.063418,-4.77164 -7.838877,-8.15569 -1.643221,-1.47287 -2.171885,-2.09672 -1.962806,-2.31619 0.210767,-0.22124 0.838113,0.0994 2.38125,1.21696 4.58475,3.32042 8.102343,6.6968 8.459523,8.11991 0.09753,0.38861 0.477665,0.9428 0.84474,1.23154 1.515568,1.19214 2.977293,0.24366 2.977293,-1.93191 0,-1.002 -0.251733,-1.79164 -1.101709,-3.45583 -0.958226,-1.87614 -1.628979,-2.6801 -5.150183,-6.17298 -2.22666,-2.20876 -3.903779,-4.0654 -3.726935,-4.12589 0.573535,-0.19616 5.030754,3.01062 7.06841,5.08543 2.204353,2.24454 3.45494,4.17319 4.407313,6.79695 0.574614,1.58304 0.598178,1.80921 0.244703,2.34869 -0.475658,0.72594 -0.315656,0.92249 0.749895,0.9212 1.283065,-0.002 2.477246,-0.87416 2.680737,-1.95886 0.290386,-1.54789 -0.957064,-5.00081 -2.844297,-7.87297 -1.710063,-2.60251 -6.082454,-7.22239 -8.093308,-8.5514 -1.180346,-0.78011 -1.185241,-1.40383 -0.0087,-1.10693 1.180417,0.29787 4.593148,2.75045 5.802196,4.16979 1.717363,2.01605 5.456909,7.73128 6.346155,9.69896 0.411031,0.90951 0.852916,1.65365 0.98197,1.65365 0.373292,0 1.057619,-0.86673 1.469961,-1.86177 0.337839,-0.81525 0.32734,-1.12071 -0.09515,-2.76844 -1.546542,-6.03162 -5.960858,-10.84043 -12.913243,-14.06725 l -2.525535,-1.17218 -3.318693,1.13025 c -2.111097,0.71898 -3.631697,1.40507 -4.17889,1.88551 -0.89748,0.788 -1.405131,0.76215 -1.405131,-0.0716 0,-0.53233 1.262518,-1.72118 2.115238,-1.99183 0.955733,-0.30334 0.55657,-0.6621 -0.726175,-0.65268 -1.732759,0.0127 -4.954069,0.62228 -6.574848,1.24412 -2.6796,1.02808 -7.052363,4.39609 -7.699881,5.93063 -0.394935,0.93595 -0.872667,0.97916 -0.872667,0.0789 0,-1.04104 0.713383,-2.20444 2.550266,-4.159 2.142604,-2.27988 2.20912,-2.84742 0.199382,-1.70116 -1.78688,1.01915 -4.597003,3.73203 -5.549659,5.35762 -1.053055,1.79689 -1.950686,4.59378 -1.956909,6.09743 -0.0055,1.32319 0.593574,3.01721 1.066964,3.01721 0.239922,0 0.219739,-0.40051 -0.133837,-2.65595 -0.154797,-0.98743 -0.09443,-1.31644 0.339797,-1.85208 0.290414,-0.35824 0.588743,-0.59096 0.662945,-0.51715 0.0742,0.0738 0.314796,1.16473 0.534649,2.42429 0.839102,4.80733 2.050674,6.30682 6.168882,7.6349 2.8116,0.9067 5.020381,0.98236 6.574996,0.2252 1.058389,-0.51547 1.061125,-0.80642 0.01929,-2.05341 -1.41611,-1.69497 -1.630262,-2.91984 -0.364722,-2.08609 0.331964,0.2187 2.160034,1.87194 4.062378,3.67386 3.602759,3.41258 5.148614,4.45887 7.549083,5.10952 1.787319,0.48446 2.026727,0.4462 2.542183,-0.40623 z"
         style="fill:#ffe0bd;fill-opacity:1;stroke-width:0.26458335"
         inkscape:connector-curvature="0" />
      <path
         id="path8086"
         d="m -85.795566,193.75142 c 0.380709,-0.24944 0.620014,-0.57034 0.531789,-0.71309 -0.08822,-0.14275 -0.99033,-0.67749 -2.004682,-1.1883 -1.014349,-0.51082 -1.90909,-1.09768 -1.988317,-1.30414 -0.07922,-0.20646 -0.53254,-0.6046 -1.007372,-0.88475 -1.141286,-0.67338 -1.893636,-2.31743 -2.271906,-4.96462 -0.303294,-2.12251 -0.298362,-2.16096 0.533533,-4.15927 1.124492,-2.70114 2.525183,-4.81127 4.545988,-6.84849 1.832759,-1.84765 4.685597,-3.51268 6.52162,-3.80627 0.608491,-0.0973 1.10635,-0.26677 1.10635,-0.37659 0,-0.31062 -3.768196,-0.58797 -5.199409,-0.3827 -3.52189,0.50512 -7.161755,1.50255 -8.558925,2.3454 -1.477425,0.89126 -2.910416,1.39333 -2.910416,1.0197 0,-0.80275 7.5145,-3.911 10.401911,-4.30258 2.496013,-0.33849 4.176779,-0.80124 3.992602,-1.09925 -0.371726,-0.60146 -5.46173,-2.86112 -7.30027,-3.24088 -1.755277,-0.36257 -2.237232,-0.3667 -4.079319,-0.035 -3.440869,0.61954 -8.170671,2.38718 -10.290961,3.84598 -1.79029,1.23175 -5.19309,2.56228 -3.74228,1.46328 0.27008,-0.2046 1.10351,-0.91944 1.85208,-1.58856 0.94608,-0.84566 2.65168,-1.82501 5.59436,-3.21225 2.328335,-1.09763 4.346444,-2.1054 4.484689,-2.23949 0.40735,-0.39512 -2.790092,-0.28642 -4.238228,0.14408 -0.717631,0.21334 -2.376351,0.9399 -3.686041,1.61459 -1.30969,0.67469 -3.0361,1.45606 -3.83646,1.73639 l -1.45521,0.50969 0.66146,-0.65809 c 1.32359,-1.31685 6.1576,-4.14912 7.79261,-4.56574 0.880053,-0.22425 1.930645,-0.57747 2.334643,-0.78494 0.599479,-0.30786 1.037338,-0.32259 2.38125,-0.0801 0.905689,0.16341 2.063424,0.51498 2.572747,0.78127 0.509323,0.26628 1.699948,0.62906 2.645833,0.80617 0.945886,0.1771 2.434167,0.65369 3.307292,1.05908 0.873125,0.4054 2.5684,1.15004 3.76728,1.65477 l 2.179781,0.9177 -0.434092,-0.73486 c -0.680659,-1.15226 -3.97442,-5.28861 -5.337111,-6.70242 -1.705941,-1.76993 -4.012039,-3.36663 -6.592004,-4.56418 -2.16984,-1.00719 -2.846107,-1.59751 -1.455208,-1.27028 5.008113,1.17825 11.238899,6.76352 14.430817,12.93578 0.589473,1.13987 2.838947,3.2419 3.693141,3.45107 0.400182,0.098 0.727604,0.11676 0.727604,0.0417 0,-0.0751 -0.78714,-1.78461 -1.749202,-3.799 -2.580625,-5.40337 -3.45044,-7.77176 -4.600337,-12.52606 -0.123188,-0.50933 -0.306636,-1.19394 -0.407662,-1.52136 -0.105447,-0.34175 -0.07148,-0.59531 0.07976,-0.59531 0.144891,0 0.56542,0.92273 0.934503,2.05052 0.753687,2.30299 2.033622,5.68678 3.446854,9.11252 1.305412,3.16437 4.398732,8.68071 4.867759,8.68071 0.210561,0 0.321887,-0.14883 0.247394,-0.33073 -0.12795,-0.31242 -1.005007,-3.04507 -2.465978,-7.68326 -0.930248,-2.95329 -1.680236,-7.76742 -1.649886,-10.59054 l 0.02611,-2.42985 0.492186,2.5913 c 1.13306,5.96545 2.196944,10.24845 3.304964,13.30518 0.647737,1.78691 1.177697,3.42718 1.177697,3.64504 0,0.7038 1.313363,1.49286 2.484824,1.49286 0.5998,0 1.490035,0.11457 1.9783,0.25461 0.618837,0.17748 1.339638,0.15076 2.379504,-0.0882 1.172715,-0.26948 3.9249,-0.30048 12.86883,-0.14497 6.257396,0.1088 20.881528,0.22526 32.498075,0.2588 24.0832061,0.0695 21.3228241,0.36965 23.0442958,-2.50545 l 0.9362917,-1.56373 -0.9265418,-0.81752 c -0.813226,-0.71754 -0.9460891,-1.01426 -1.0863844,-2.42618 -0.1416527,-1.42562 -0.046802,-1.9164 0.8335645,-4.31306 0.6815058,-1.85529 1.1969565,-2.8455 1.6417052,-3.15383 0.356563,-0.2472 1.3805032,-1.08555 2.2754246,-1.86301 1.882902,-1.63578 3.3154514,-2.51324 4.8232614,-2.95437 1.027173,-0.30051 1.088366,-0.38138 1.569011,-2.07343 0.808778,-2.84721 2.145284,-6.89666 2.340724,-7.09209 0.09943,-0.0994 0.180782,0.24875 0.180782,0.77374 0,0.52499 -0.119063,1.02811 -0.264584,1.11804 -0.14552,0.0899 -0.264583,0.52361 -0.264583,0.96372 0,0.44011 -0.245891,1.76326 -0.546423,2.94033 -0.511651,2.00394 -0.519933,3.372 -0.02043,3.372 0.119259,0 1.033074,-1.0418 2.030701,-2.31511 0.997625,-1.27331 3.020457,-3.68432 4.495181,-5.35781 3.218175,-3.65193 6.808679,-8.23367 8.276106,-10.56091 l 1.070263,-1.69737 -2.347317,-1.34534 c -2.653884,-1.52105 -5.84373,-3.80446 -7.787613,-5.57468 -0.721503,-0.65704 -1.420207,-1.19462 -1.552673,-1.19462 -0.132469,0 -0.983975,0.7579 -1.892234,1.68421 l -1.651381,1.68422 -0.141245,4.59964 c -0.145399,4.73495 -0.40327,6.06016 -1.47764,7.59368 -0.273627,0.39057 -0.702,1.33395 -0.951944,2.09639 -1.119918,3.4163 -4.3108037,7.12426 -10.3502437,12.02748 -2.58968613,2.10248 -3.926287,2.95038 -7.4015706,4.69534 -4.0012514,2.00905 -7.7715587,4.51521 -10.1786237,6.76583 -2.16988,2.02885 -5.576975,3.04248 -10.854545,3.22929 -4.123036,0.14593 -6.797341,-0.21203 -12.417774,-1.66214 -1.376392,-0.35512 -4.769673,-0.8846 -7.540625,-1.17662 -6.022875,-0.63474 -6.160876,-0.65741 -8.332269,-1.36898 -5.245722,-1.71902 -9.332013,-4.48642 -11.648993,-7.88917 -2.220338,-3.26082 -3.693745,-7.16413 -3.945022,-10.45104 -0.146312,-1.91389 -0.212508,-2.11099 -0.690981,-2.05737 -1.269074,0.14223 -4.172982,-0.46828 -5.978929,-1.25699 -1.077214,-0.47045 -3.064513,-1.56952 -4.416219,-2.44237 -1.351706,-0.87285 -2.492124,-1.54201 -2.534259,-1.48701 -0.04214,0.055 -0.415565,0.55528 -0.829839,1.11176 -0.432202,0.58056 -1.381874,1.33178 -2.228239,1.76262 -1.280699,0.65194 -4.267522,2.63903 -8.148124,5.42082 -3.550541,2.5452 -7.9624,6.24312 -9.56679,8.01868 -2.17625,2.40842 -7.11184,8.09037 -8.68506,9.9984 -1.23769,1.5011 -3.271,4.83794 -4.17707,6.85495 -1.48936,3.3155 -1.80325,4.65491 -1.92346,8.20776 l -0.11638,3.43958 1.72586,3.43959 c 2.46212,4.90691 4.56575,6.9028 7.0543,6.69302 l 0.93046,-0.0784 -1.47022,-1.19063 c -1.8019,-1.45922 -3.15999,-3.06348 -3.15999,-3.73277 0,-0.8083 0.86195,-0.57476 1.5875,0.43013 1.56427,2.16653 4.79784,3.98609 8.44843,4.75402 1.8558,0.39038 5.839071,0.55715 5.839071,0.24447 0,-0.0859 -0.519565,-0.77054 -1.154591,-1.52136 -1.38888,-1.64212 -1.75583,-2.30758 -1.75583,-3.18418 0,-1.1722 0.47515,-1.00981 1.624226,0.55512 1.494541,2.03542 3.629112,4.26907 4.524288,4.73429 2.53752,1.31875 8.079957,1.77949 9.580321,0.79641 z"
         style="fill:#00ffff;stroke-width:0.26458335"
         inkscape:connector-curvature="0" />
      <path
         id="path8084"
         d="m 46.203136,185.82792 c 4.284877,-1.98524 7.126229,-4.65508 8.779473,-8.2495 0.468521,-1.01865 1.36548,-3.30842 1.993241,-5.08839 0.627758,-1.77997 1.201512,-3.17617 1.275006,-3.10268 0.281215,0.28121 -0.0191,2.98837 -0.556451,5.01607 -0.656936,2.47895 -1.863397,5.22768 -3.236978,7.37493 -1.178962,1.84302 -0.645367,1.69513 1.392414,-0.3859 0.907696,-0.92697 1.93575,-2.50741 3.2316,-4.96798 2.317808,-4.40108 3.045262,-7.31728 2.81419,-11.28147 -0.371935,-6.38087 -2.870213,-13.14495 -6.107641,-16.53646 -0.902917,-0.94588 -1.871562,-2.12364 -2.152547,-2.61724 -0.419481,-0.73689 -1.098418,-1.17598 -3.794906,-2.45429 -3.926649,-1.86148 -5.824638,-2.97983 -8.540458,-5.03228 -1.119196,-0.84582 -2.086833,-1.53785 -2.150304,-1.53785 -0.06347,0 -0.717954,0.80367 -1.454409,1.78593 -0.736454,0.98227 -2.414225,3.2085 -3.728384,4.94719 -1.314159,1.73868 -2.353114,3.1975 -2.308791,3.24183 0.04432,0.0443 0.744781,-0.14793 1.556573,-0.42723 2.989532,-1.02855 5.687562,-1.41036 9.186989,-1.30011 3.039793,0.0958 3.459708,0.17252 5.066911,0.92592 2.324849,1.0898 3.673854,2.35839 4.81288,4.52596 0.986353,1.87703 2.051793,5.27511 2.21683,7.0703 l 0.0973,1.05833 -0.420044,-0.92604 c -0.231024,-0.50932 -0.644565,-1.60974 -0.918983,-2.44537 -0.274415,-0.83563 -0.78953,-1.90719 -1.144696,-2.38125 -0.355168,-0.47406 -0.732795,-1.15958 -0.839171,-1.52338 -0.288343,-0.98612 -1.13684,-1.79374 -2.952519,-2.81029 -3.540988,-1.98249 -9.141228,-2.22778 -13.71653,-0.60078 -2.286415,0.81306 -5.423958,2.52278 -5.423958,2.95565 0,0.11414 1.220391,0.12916 2.711979,0.0334 2.395464,-0.15385 3.02714,-0.0945 5.412357,0.50802 3.050148,0.77055 4.508455,1.40999 4.114379,1.80406 -0.166952,0.16696 -0.805683,0.0756 -1.816341,-0.25985 -2.39064,-0.79342 -3.411699,-0.88224 -6.897251,-0.59996 -3.45027,0.27942 -5.368819,0.87702 -6.425022,2.00129 l -0.570717,0.6075 0.741317,0.18606 c 0.794308,0.19936 2.551052,1.22101 3.782822,2.19994 1.602349,1.27343 2.84207,3.83072 3.265623,6.73629 0.252148,1.72972 -0.272667,1.32861 -1.03323,-0.7897 -0.827966,-2.30603 -1.874287,-4.00634 -2.864755,-4.65532 -0.366919,-0.24041 -0.70209,-0.43711 -0.744826,-0.43711 -0.04274,0 0.0034,1.10132 0.102539,2.44739 0.115309,1.56572 0.488323,3.44822 1.035429,5.22552 0.741304,2.40817 0.858538,3.18376 0.88034,5.8241 0.02461,2.98169 0.0056,3.08424 -0.900893,4.8587 -0.94434,1.84855 -2.930954,4.11208 -5.55625,6.33074 l -1.455208,1.22981 1.190625,0.003 c 1.767001,0.005 3.814207,-0.61561 6.482291,-1.96485 1.927937,-0.97496 3.01085,-1.79121 5.688542,-4.28777 1.81901,-1.69596 3.522067,-3.43498 3.784571,-3.86448 0.78989,-1.29238 0.821023,-0.59379 0.03768,0.84547 -1.407006,2.58513 -3.362568,4.51864 -8.411318,8.31645 -1.132393,0.85181 -2.009611,1.59805 -1.949371,1.65828 0.06024,0.0602 0.990484,-0.0111 2.067211,-0.15856 3.918849,-0.53666 8.168717,-3.25898 12.60453,-8.07404 1.938975,-2.10474 2.625191,-2.42098 1.862008,-0.8581 -1.13715,2.32872 -5.854705,6.82437 -8.8558,8.43924 -1.275532,0.68635 -2.359845,1.37 -2.409584,1.51922 -0.186825,0.56048 3.263474,1.07403 6.561741,0.97667 2.249141,-0.0664 2.731751,-0.1753 4.587949,-1.0353 z"
         style="fill:#00ffff;stroke-width:0.26458335"
         inkscape:connector-curvature="0" />
      <path
         id="path8082"
         d="m 21.59007,182.39752 c 0.934175,-0.61225 2.298033,-2.49955 2.298033,-3.18002 0,-0.48512 -0.03958,-0.4954 -0.46302,-0.12018 -0.714502,0.63313 -2.770296,1.23244 -5.166149,1.50605 -2.028404,0.23164 -2.272451,0.20477 -3.597074,-0.39604 -1.770737,-0.80315 -2.56703,-0.82085 -2.970998,-0.066 -0.270288,0.50504 -0.212667,0.65804 0.453713,1.2047 1.840388,1.50976 2.399255,1.66677 5.669933,1.59299 2.403883,-0.0542 3.208116,-0.16957 3.775562,-0.54147 z"
         style="fill:#ffe0bd;fill-opacity:1;stroke-width:0.26458335"
         inkscape:connector-curvature="0" />
      <path
         id="path8080"
         d="m 1.121877,182.09087 c 0.1745244,-0.21029 0.9332436,-0.76459 1.6860414,-1.23178 4.2205142,-2.61926 4.7214499,-3.00048 5.3175985,-4.04679 1.004779,-1.76351 1.0676175,-2.44924 0.2722033,-2.97041 -0.6493219,-0.42545 -0.7530756,-0.41517 -2.3181178,0.22982 -0.9011073,0.37136 -1.6750956,0.57704 -1.7199795,0.45707 -0.044884,-0.11997 0.1522862,-0.67659 0.4381553,-1.23694 0.2858717,-0.56036 0.5607182,-1.43245 0.6107747,-1.938 0.084915,-0.85764 0.036036,-0.92453 -0.7301309,-0.99919 -0.6007153,-0.0585 -1.1333903,0.15644 -1.984375,0.80086 -1.0894404,0.82499 -1.23326,1.09024 -2.26705054,4.18106 -1.57030476,4.69489 -1.63095256,5.2358 -0.70365144,6.27583 0.85959686,0.96409 0.96544342,1.0003 1.39853198,0.47847 z"
         style="fill:#ffffff;stroke-width:0.26458335"
         inkscape:connector-curvature="0" />
      <path
         id="path8078"
         d="m 26.872749,178.60257 c 1.17643,-1.32617 1.423577,-1.84825 1.930969,-4.07909 0.658738,-2.89625 0.429889,-6.60762 -0.528185,-8.56585 -0.397201,-0.81185 -0.832488,-1.47609 -0.967306,-1.47609 -0.134819,0 -0.245124,0.82815 -0.245124,1.84034 0,1.52671 0.112723,2.00644 0.661459,2.81504 1.053269,1.55208 0.93023,3.35472 -0.408282,5.9817 -0.910838,1.78762 -1.748636,4.44417 -1.401558,4.44417 0.05842,0 0.489529,-0.4321 0.958027,-0.96022 z"
         style="fill:#ffe0bd;fill-opacity:1;stroke-width:0.26458335"
         inkscape:connector-curvature="0" />
      <path
         id="path8076"
         d="m 21.498985,178.04144 c 1.891109,-0.94573 4.851884,-3.84408 5.286401,-5.17494 0.259596,-0.7951 0.261009,-1.17195 0.0067,-1.78593 -0.177289,-0.42801 -0.40015,-0.77819 -0.49525,-0.77819 -0.0951,0 -0.868577,0.65785 -1.718839,1.46189 -3.185665,3.0125 -6.943754,4.72446 -10.413325,4.74371 -1.200547,0.007 -2.182813,0.0829 -2.182813,0.16953 0,0.31621 0.964354,1.01717 2.121424,1.54201 0.905751,0.41084 1.747454,0.53927 3.563321,0.54371 2.071262,0.005 2.564831,-0.0879 3.832387,-0.72179 z"
         style="fill:#ffe0bd;fill-opacity:1;stroke-width:0.26458335"
         inkscape:connector-curvature="0" />
      <path
         id="path8072"
         d="m 18.518456,173.43574 c 4.030919,-1.96931 6.430754,-4.44485 6.849795,-7.06589 0.177716,-1.11158 0.164016,-1.14345 -0.368882,-0.85825 -0.996505,0.53331 -3.940937,2.61124 -5.638691,3.97931 -1.51824,1.22341 -1.783318,1.34068 -3.030411,1.34068 -1.554993,0 -2.339581,0.48129 -3.583143,2.19797 -0.891728,1.231 -0.927225,1.41944 -0.30225,1.60453 1.328092,0.39333 3.823378,-0.099 6.073582,-1.19835 z"
         style="fill:#ffe0bd;fill-opacity:1;stroke-width:0.26458335"
         inkscape:connector-curvature="0" />
      <path
         id="path8070"
         d="m 11.839333,172.18994 1.467789,-1.81665 -0.642667,-1.15991 c -0.909821,-1.64208 -1.090377,-2.89366 -0.564224,-3.91113 1.011203,-1.95545 5.672336,-5.98512 9.523827,-8.23359 1.199105,-0.70003 1.850438,-1.32288 2.62848,-2.51354 2.919145,-4.46727 7.222029,-10.37269 15.373691,-21.09937 8.768625,-11.53854 10.720208,-14.25321 10.720208,-14.91193 0,-0.1763 -0.555083,-0.53253 -1.23352,-0.79163 l -1.233519,-0.47109 -0.68471,0.89928 c -0.376589,0.4946 -2.858018,3.61946 -5.514284,6.94413 -6.276025,7.85528 -11.544538,14.64016 -14.352717,18.48366 -17.923931,24.53213 -20.1083337,27.6076 -20.1083337,28.31097 0,0.10221 0.220607,0.12814 0.4902386,0.0576 0.3258767,-0.0852 0.8359457,0.22028 1.5213541,0.9112 0.5671132,0.57167 1.055748,1.05723 1.085858,1.07902 0.03011,0.0218 0.715245,-0.77789 1.522529,-1.77705 z"
         style="fill:#ffdd00;fill-opacity:1;stroke-width:0.26458335"
         inkscape:connector-curvature="0" />
      <path
         id="path8068"
         d="m 7.4839367,169.50247 c 0,-0.22071 4.1117043,-6.07899 6.1237703,-8.72504 0.276638,-0.36381 0.914001,-1.25677 1.416363,-1.98438 0.502359,-0.7276 1.422357,-2.00506 2.044438,-2.8388 0.62208,-0.83373 3.984474,-5.41764 7.471989,-10.18646 7.318759,-10.00764 6.702092,-9.18343 7.5453,-10.08482 0.361387,-0.38633 2.355948,-2.90508 4.432356,-5.59721 2.07641,-2.69214 4.459634,-5.76558 5.296059,-6.82988 0.836422,-1.0643 1.69936,-2.20776 1.917641,-2.54102 0.218282,-0.33325 0.965483,-1.30793 1.660446,-2.16595 0.694965,-0.85801 1.329492,-1.81414 1.410062,-2.12472 0.153782,-0.59281 -0.644247,-2.42086 -1.291217,-2.9578 -0.456697,-0.37903 -0.666488,-0.15594 -2.31726,2.46416 -0.641789,1.01865 -2.19016,3.2213 -3.440822,4.89479 -1.250661,1.67349 -2.980425,4.00287 -3.843922,5.1764 -2.788875,3.79021 -9.256448,12.32863 -11.892502,15.70036 -1.411232,1.80508 -4.227097,5.49602 -6.257475,8.20208 -2.030381,2.70607 -4.13112,5.48746 -4.668309,6.18088 -0.928931,1.19908 -0.984117,1.38353 -1.128143,3.7707 -0.135393,2.24408 -0.235596,2.62613 -0.946021,3.60684 -0.802833,1.10827 -1.4488289,1.53236 -4.0251218,2.64244 -0.7811373,0.33658 -1.7548833,1.01937 -2.1673132,1.51972 l -0.7489031,0.90854 1.1089799,0.60825 c 1.1672252,0.64019 2.2996049,0.81792 2.2996049,0.36092 z"
         style="fill:#ffdd00;fill-opacity:1;stroke-width:0.26458335"
         inkscape:connector-curvature="0" />
      <path
         id="path8066"
         d="m 18.36272,168.18571 c 0.979791,-0.58208 1.903341,-1.05833 2.05233,-1.05833 0.463444,0 5.595753,-4.01073 6.23425,-4.87186 1.013344,-1.36668 1.002933,-1.88255 -0.07034,-3.48576 -0.925468,-1.38243 -1.016746,-1.4452 -1.943891,-1.33674 -2.137844,0.2501 -4.687629,1.85609 -7.927203,4.99298 -1.855483,1.79666 -3.142432,3.25828 -3.238314,3.67783 -0.345316,1.51094 0.918032,3.11631 2.46566,3.13317 0.355338,0.004 1.447715,-0.46921 2.427507,-1.05129 z"
         style="fill:#ffe0bd;fill-opacity:1;stroke-width:0.26458335"
         inkscape:connector-curvature="0" />
      <path
         id="path8064"
         d="m -23.736897,164.47417 c 3.177382,-0.33219 4.442833,-0.75451 6.933168,-2.31383 1.09858,-0.68787 3.392451,-2.08411 5.097492,-3.10276 10.3428457,-6.17914 16.2726318,-10.93939 19.7752759,-15.875 1.5784804,-2.22424 2.3248511,-3.65041 3.5831141,-6.84662 l 0.950249,-2.41379 1.85e-4,-4.23334 c 2.28e-4,-5.16832 -0.370914,-6.74344 -2.7809613,-11.80232 -1.5874921,-3.33227 -1.6333021,-3.48526 -1.1495194,-3.83902 0.2771246,-0.20263 0.7184681,-0.30032 0.9807628,-0.21707 0.3054615,0.0969 0.4769009,0.0173 0.4769009,-0.22146 0,-0.20512 -0.4714584,-0.51408 -1.0480913,-0.68684 -0.5764504,-0.17271 -1.6752438,-0.89068 -2.4417655,-1.5955 -1.2185597,-1.12047 -1.3488511,-1.33549 -1.0369471,-1.71131 0.3086577,-0.37191 0.2358814,-0.56365 -0.5400992,-1.42294 -0.4932521,-0.54622 -1.4572192,-1.82656 -2.1421461,-2.8452 C 1.9038213,103.8348 1.3952206,103.35053 0.14789808,102.70701 -3.1382745,101.0116 -6.5216313,96.80151 -8.6364564,91.776184 L -9.5433052,89.62129 -10.51467,91.795686 c -2.583027,5.782096 -3.940739,7.699915 -6.04806,8.543094 -0.651703,0.26076 -1.342602,0.85737 -1.910871,1.65008 -0.489551,0.6829 -2.159998,2.51248 -3.712102,4.06574 -2.430655,2.43246 -3.146679,2.98149 -5.163164,3.95901 -1.822426,0.88346 -2.720408,1.15938 -4.052824,1.24532 -1.483547,0.0957 -1.896443,0.2469 -3.098122,1.13463 -2.09006,1.54402 -6.813923,4.07712 -9.345417,5.01135 -3.673904,1.35582 -5.247574,1.77674 -8.740852,2.33803 -1.824291,0.29311 -3.788822,0.73252 -4.365625,0.97647 -3.504763,1.48224 -9.474618,1.80981 -13.32331,0.73106 l -0.632913,-0.17739 0.194699,3.94329 c 0.117036,2.37031 0.344305,4.30204 0.569741,4.84262 0.79993,1.91819 1.156279,4.06198 1.54374,9.28714 0.23654,3.1899 0.624282,6.338 0.941377,7.64313 0.99328,4.08822 3.398242,7.74786 6.692606,10.18416 3.986734,2.94832 7.079192,4.0505 12.358037,4.40451 3.568078,0.23928 7.043835,0.75459 9.789583,1.45139 2.349379,0.59621 9.255697,1.58968 11.641667,1.67466 0.509323,0.0181 2.057135,-0.0853 3.439583,-0.22981 z"
         style="fill:#ffe0bd;fill-opacity:1;stroke-width:0.26458335"
         inkscape:connector-curvature="0" />
      <path
         id="path8062"
         d="m -37.646291,156.4779 c -1.759847,-2.08078 -2.630027,-5.47526 -2.44693,-9.54519 0.07931,-1.76288 0.240868,-2.62636 0.590272,-3.15481 0.583343,-0.88228 1.081402,-0.96146 0.832144,-0.1323 -0.523307,1.7408 -0.594985,2.88976 -0.432084,6.92618 0.06905,1.71085 0.613368,3.90339 1.191205,4.7982 0.22905,0.35469 0.60874,0.94255 0.843759,1.30635 0.601384,0.93093 0.285001,0.82238 -0.578366,-0.19843 z"
         style="fill:#000000;stroke-width:0.26458335"
         inkscape:connector-curvature="0" />
      <path
         id="path8060"
         d="m -30.086897,155.53064 c 0,-0.12081 1.754654,-1.04354 3.899228,-2.05052 4.186346,-1.96568 5.156822,-2.65208 6.461009,-4.56972 0.46005,-0.67645 1.766522,-2.61197 2.903276,-4.30117 2.366504,-3.51659 4.875411,-6.03077 6.721755,-6.7359 1.1213227,-0.42824 1.474941,-0.44301 3.528904,-0.14745 3.4977891,0.50333 5.74202458,1.38236 7.16677673,2.80711 l 1.20134327,1.20135 v 2.33094 c 0,3.24967 -0.4481116,3.88464 -4.2603208,6.03679 -2.4421518,1.37869 -3.2073612,1.67693 -5.0000959,1.94877 -2.4927163,0.37797 -5.1513763,0.23911 -7.5406253,-0.39384 -1.192088,-0.3158 -2.35172,-0.42045 -3.779252,-0.34106 -1.856547,0.10326 -2.143305,0.19409 -2.910417,0.92191 -1.081424,1.02603 -1.972395,1.46991 -5.218123,2.59968 -2.756993,0.95964 -3.173458,1.0506 -3.173458,0.69311 z"
         style="fill:#000000;stroke-width:0.26458335"
         inkscape:connector-curvature="0" />
      <path
         id="path8058"
         d="m -7.1117765,150.18835 c 1.0615586,-0.29418 2.8831488,-1.01404 4.0479769,-1.59971 1.8374915,-0.92387 2.18472012,-1.21209 2.62282514,-2.17712 0.70027271,-1.54249 0.66858356,-3.32347 -0.0787347,-4.42516 -1.37390184,-2.02541 -6.41386514,-3.62732 -8.98691154,-2.85641 -1.2864073,0.38541 -3.4926773,2.31612 -4.1749613,3.65351 l -0.501671,0.98336 2.962241,0.1509 c 3.0066004,0.15315 4.5306745,0.56155 5.227071,1.40065 0.336767,0.40579 0.2985903,0.43244 -0.4179385,0.29177 -4.9108385,-0.96406 -6.7361195,-0.80181 -9.0869005,0.80772 -1.172879,0.80305 -2.681867,2.55263 -2.681867,3.10947 0,0.0756 0.744141,0.13764 1.653646,0.13776 1.011629,1.3e-4 2.16726,0.20077 2.976563,0.51679 1.729348,0.67528 4.0168774,0.67758 6.4386615,0.006 z"
         style="fill:#ff0000;stroke-width:0.26458335"
         inkscape:connector-curvature="0" />
      <path
         id="path8056"
         d="m -32.071272,144.38567 c -1.459301,-0.36396 -2.63884,-0.99819 -3.439583,-1.84945 -0.693489,-0.73724 -0.78137,-1.00037 -0.695743,-2.08311 0.0539,-0.6816 0.113435,-2.09235 0.132292,-3.13501 0.0545,-3.01349 0.842129,-1.73563 1.079306,1.75108 0.118579,1.7432 0.802662,3.0622 1.844593,3.55663 1.26591,0.60072 3.535879,0.7933 5.222772,0.4431 2.308249,-0.47919 3.450101,-1.38358 4.847006,-3.83901 1.530799,-2.69078 1.511712,-3.66185 -0.130443,-6.6367 -0.610632,-1.1062 -1.053541,-2.06797 -0.984242,-2.13727 0.284536,-0.28454 2.488846,1.72211 3.094633,2.81713 0.873556,1.57904 0.843738,3.28601 -0.09752,5.58233 -0.80781,1.97075 -2.082723,3.60536 -3.490719,4.47554 -1.602121,0.99017 -5.441691,1.53874 -7.382352,1.05474 z"
         style="fill:#000000;stroke-width:0.26458335"
         inkscape:connector-curvature="0" />
      <path
         id="path8054"
         d="m -51.518147,136.44502 c 0,-0.38131 0.849249,-0.76377 2.149676,-0.96811 1.319253,-0.20729 5.216057,-2.28122 7.375324,-3.92524 2.033342,-1.54814 2.116667,-1.58596 2.116667,-0.96076 0,0.53788 -1.103371,1.46054 -4.717153,3.94457 -2.416342,1.66094 -3.646011,2.15229 -5.403159,2.159 -0.836745,0.003 -1.521355,-0.10906 -1.521355,-0.24946 z"
         style="fill:#000000;stroke-width:0.26458335"
         inkscape:connector-curvature="0" />
      <path
         id="path8052"
         d="m -56.016063,127.87776 c 0,-0.55014 0.656082,-1.02124 4.382566,-3.1469 3.744494,-2.13593 6.279134,-3.14703 7.127108,-2.84308 0.467759,0.16767 0.421867,0.23634 -0.397174,0.59435 -3.194336,1.39625 -6.015355,2.83036 -8.244401,4.19117 -1.405723,0.85818 -2.626114,1.56033 -2.711979,1.56033 -0.08587,0 -0.15612,-0.16015 -0.15612,-0.35587 z"
         style="fill:#000000;stroke-width:0.26458335"
         inkscape:connector-curvature="0" />
      <path
         id="path8050"
         d="m -26.316584,124.35423 c -0.181901,-0.0734 -0.329867,-0.27236 -0.328811,-0.44213 0.0013,-0.20381 0.652978,-0.3189 1.918229,-0.33876 1.922859,-0.0302 3.997053,-0.67967 9.048671,-2.83338 1.558557,-0.66448 2.269852,-0.69602 1.756862,-0.0779 -0.512641,0.61769 -5.733531,3.10037 -7.301722,3.47217 -1.542013,0.36559 -4.42391,0.49008 -5.093229,0.22 z"
         style="fill:#000000;stroke-width:0.26458335"
         inkscape:connector-curvature="0" />
      <path
         id="path8048"
         d="m -23.793528,112.27663 c 1.553001,-1.37929 2.290969,-1.80391 4.731652,-2.72258 l 1.692653,-0.63711 2.041684,0.66592 c 2.938513,0.95843 3.242935,1.27101 0.983351,1.00969 -3.793734,-0.43873 -4.27449,-0.35572 -6.746875,1.16492 -1.236927,0.76077 -2.662669,1.46562 -3.168314,1.56632 l -0.919356,0.1831 z"
         style="fill:#000000;stroke-width:0.26458335"
         inkscape:connector-curvature="0" />
      <path
         id="path8046"
         d="m 7.2554028,164.03777 c 1.609471,-0.32189 2.9284292,-2.70498 2.9760252,-5.37706 0.02873,-1.61312 0.116793,-1.84835 1.419696,-3.79248 1.419693,-2.11839 1.739149,-3.01306 0.970547,-2.71812 -0.230182,0.0883 -0.628745,0.1606 -0.885692,0.1606 -0.256948,0 -1.496828,0.77665 -2.7552865,1.72588 -1.2584562,0.94924 -2.5829762,1.838 -2.9433731,1.97502 -0.3912288,0.14874 -0.7292261,0.54609 -0.8388059,0.9861 -0.1009465,0.40532 -0.5209911,1.557 -0.9334315,2.55929 -0.807429,1.96214 -0.9458378,3.25488 -0.4191662,3.91504 0.534715,0.67024 1.3437209,1.01659 2.0152413,0.86277 0.3444002,-0.0789 0.9718093,-0.21255 1.3942457,-0.29704 z"
         style="fill:#ffe0bd;fill-opacity:1;stroke-width:0.26458335"
         inkscape:connector-curvature="0" />
      <path
         id="path8044"
         d="m -70.632414,136.63415 c -0.1094,-3.00581 -0.254778,-4.0788 -0.716949,-5.29167 -0.444098,-1.16544 -0.705988,-1.52135 -1.119458,-1.52135 -0.327562,0 -1.926283,-1.30738 -4.066907,-3.32578 l -3.527169,-3.32577 -1.212763,0.18187 c -0.667017,0.10002 -1.58561,0.43576 -2.041316,0.74608 -1.541777,1.0499 -1.83606,1.71575 -2.069123,4.68162 l -0.214686,2.73203 0.929024,1.13376 c 3.58812,4.37882 9.185865,7.67504 13.147908,7.74211 l 1.028668,0.0174 z"
         style="fill:#ffe0bd;fill-opacity:1;stroke-width:0.26458335"
         inkscape:connector-curvature="0" />
      <path
         id="path8042"
         d="m -76.785855,136.85838 c -1.713603,-0.75641 -2.311855,-2.31793 -1.498436,-3.91114 l 0.497755,-0.97494 -0.979855,-0.9568 c -0.569166,-0.55578 -1.512927,-1.11724 -2.251691,-1.33957 -1.122098,-0.3377 -1.36678,-0.3354 -2.078289,0.0196 -0.747231,0.37277 -0.84414,0.36463 -1.319628,-0.11086 -0.318953,-0.31895 -0.446903,-0.68587 -0.338074,-0.96947 0.151881,-0.3958 0.44909,-0.43753 2.241246,-0.31469 1.365646,0.0936 2.462461,0.33923 3.2351,0.72449 1.072546,0.5348 6.857497,5.94567 6.857497,6.41407 0,0.41196 -0.537223,0.17453 -2.234806,-0.98768 -2.277774,-1.55943 -2.579851,-1.55143 -2.476045,0.0655 0.07531,1.1731 0.149186,1.28833 1.117323,1.74283 0.791379,0.37151 0.947896,0.54287 0.661458,0.72417 -0.470493,0.2978 -0.47565,0.29735 -1.433555,-0.12548 z"
         style="fill:#000000;stroke-width:0.26458335"
         inkscape:connector-curvature="0" />
      <path
         id="path8040"
         d="m -74.131645,124.64627 c -0.230873,-0.68001 -0.482399,-1.96675 -0.558951,-2.85941 -0.255024,-2.97382 -0.356203,-3.34282 -0.916622,-3.34282 -0.427884,0 -0.517179,0.18465 -0.517179,1.06949 0,1.73637 0.767771,5.03885 1.53519,6.60343 0.706503,1.44039 0.714602,1.44661 0.795549,0.61046 0.04498,-0.46462 -0.107117,-1.40113 -0.337987,-2.08115 z"
         style="fill:#d45500;fill-opacity:1;stroke-width:0.26458335"
         inkscape:connector-curvature="0" />
      <path
         id="path8038"
         d="m -72.155647,123.95498 c 0,-2.62524 -0.08092,-3.30972 -0.437882,-3.70417 -0.798526,-0.88236 -0.954268,-0.56442 -0.767422,1.56667 0.258998,2.95404 0.693238,5.35781 0.96788,5.35781 0.130583,0 0.237424,-1.44914 0.237424,-3.22031 z"
         style="fill:#d45500;fill-opacity:1;stroke-width:0.26458335"
         inkscape:connector-curvature="0" />
      <path
         id="path8036"
         d="m 15.343136,123.80185 c 1.227865,-1.50838 4.588692,-6.90849 5.406919,-8.68774 2.104551,-4.57635 2.892412,-8.71027 2.370743,-12.43934 -0.55128,-3.940719 -1.851742,-6.471226 -3.724259,-7.246847 -1.210865,-0.501557 -1.878285,-0.15544 -3.264199,1.692783 -1.525865,2.03486 -2.101868,3.472314 -2.6603,6.638964 -0.759849,4.30881 -1.496317,7.53659 -2.026481,8.88162 -0.664112,1.68487 -0.672254,3.17737 -0.0217,3.98076 l 0.500327,0.61788 0.291947,-1.05159 c 0.16057,-0.57838 0.29261,-1.31697 0.29342,-1.64133 0.0019,-0.74318 1.907241,-8.1417 2.640756,-10.25394 0.948224,-2.73052 3.837958,-7.030748 4.464444,-6.64356 0.553239,0.341922 0.321498,1.006716 -1.245248,3.57226 -0.852424,1.39584 -1.804874,3.36146 -2.116558,4.36804 -0.311682,1.00658 -0.53698,1.84396 -0.500661,1.86085 1.600748,0.74423 1.683258,0.85574 2.041351,2.75888 0.184099,0.97844 0.114056,1.36857 -0.451284,2.51354 -0.78341,1.58662 -1.370965,2.32545 -1.691685,2.12723 -0.350944,-0.21689 -0.255318,-1.48719 0.167653,-2.2271 0.414271,-0.72469 0.531426,-2.79603 0.170751,-3.01894 -0.757592,-0.46822 -2.563238,3.83621 -3.228721,7.69685 l -0.327477,1.89979 1.09741,2.10936 c 0.603578,1.16015 1.097412,2.29954 1.097412,2.53199 0,0.5496 0.246496,0.53568 0.715449,-0.0404 z"
         style="fill:#ffe0bd;fill-opacity:1;stroke-width:0.26458335"
         inkscape:connector-curvature="0" />
      <path
         id="path8034"
         d="m -78.732244,120.45267 c -0.724765,-1.63845 -1.360903,-4.20348 -1.360903,-5.48741 0,-0.91116 -0.06759,-1.03334 -0.496369,-0.89725 -0.36041,0.11438 -0.549267,-0.008 -0.689501,-0.4452 -0.160139,-0.49975 -0.214024,-0.52485 -0.315402,-0.14688 -0.281567,1.04977 1.272794,5.47407 2.646064,7.53168 0.767392,1.14981 0.862345,0.90598 0.216111,-0.55494 z"
         style="fill:#d45500;fill-opacity:1;stroke-width:0.26458335"
         inkscape:connector-curvature="0" />
      <path
         id="path8032"
         d="m -62.130648,120.52337 c 3.9374,-0.68566 13.603558,-7.48843 20.911752,-14.71709 2.8518,-2.82077 4.440425,-4.21377 4.610986,-4.04321 0.237239,0.23724 -2.9113,3.74459 -4.851035,5.40387 -0.361032,0.30883 -1.680768,1.57355 -2.932742,2.81047 -1.251977,1.23693 -3.149685,2.90381 -4.217128,3.70417 -5.522672,4.14087 -4.550037,4.57902 1.674114,0.75414 3.23297,-1.98673 6.293649,-3.52162 7.837824,-3.93056 1.031102,-0.27306 1.217475,-0.2555 1.508233,0.14214 0.305827,0.41824 0.410321,0.39124 1.337064,-0.34542 2.654361,-2.10997 10.863522,-11.629355 12.087426,-14.016654 0.242467,-0.472942 0.566772,-0.859895 0.720683,-0.859895 0.366591,0 0.404333,-0.07515 -1.815158,3.613957 -1.84046,3.059102 -5.864852,8.001612 -8.897247,10.927072 -0.672478,0.64876 -1.222687,1.27384 -1.222687,1.38906 0,0.46852 0.741322,0.16026 1.471853,-0.61204 0.427408,-0.45184 1.49148,-1.30102 2.364605,-1.88706 0.873125,-0.58604 2.206461,-1.66476 2.962966,-2.39715 1.13239,-1.09629 1.443992,-1.27475 1.76322,-1.00981 0.335814,0.2787 0.337854,0.41746 0.01521,1.03587 -0.20489,0.39273 -0.37326,0.91539 -0.374157,1.16146 -7.94e-4,0.24608 -0.120693,0.521 -0.266214,0.61093 -0.14552,0.0899 -0.264583,0.27353 -0.264583,0.40797 0,0.3127 1.540243,-0.5464 3.584946,-1.99956 1.739484,-1.23625 3.111849,-2.75974 5.55322,-6.16477 3.07997,-4.295708 3.181056,-4.414283 3.769805,-4.422107 0.729236,-0.0097 0.880065,-0.172185 1.989574,-2.143474 0.846193,-1.503453 2.388036,-5.623179 2.388404,-6.381703 9e-5,-0.181901 0.161555,-0.330729 0.358815,-0.330729 0.2669563,0 0.3505011,-0.422778 0.3267759,-1.653646 -0.033449,-1.735249 0.033597,-2.233374 0.3739118,-2.778125 0.3901096,-0.624459 0.7045484,-0.329697 0.705612,0.661458 0.00339,3.166878 1.229958,7.723143 2.9456565,10.942122 1.6238935,3.046736 5.4114092,6.508354 6.7407341,6.160724 0.3964014,-0.10366 0.6773095,0.0611 1.031195,0.60469 0.2675096,0.41093 0.6739202,0.89885 0.9031367,1.08426 1.3985875,1.13128 5.6490473,2.7056 7.304783,2.7056 0.82777,0 0.912498,-0.0889 1.449467,-1.52135 0.750009,-2.00073 1.055272,-5.18649 0.779598,-8.135941 -0.29069,-3.110116 -0.508646,-4.114009 -0.92814,-4.274984 -0.227476,-0.08729 -0.296535,-0.42304 -0.204129,-0.99246 C 11.953395,86.416447 8.2754033,78.019411 4.3484469,74.000213 3.2787709,72.905411 2.115906,71.444118 1.7643012,70.752894 1.3578668,69.953878 0.95107519,69.496123 0.64744465,69.496123 c -0.26266775,0 -1.03515848,-0.189987 -1.71664845,-0.422194 -1.2280953,-0.418455 -1.8118852,-1.242021 -1.3780293,-1.944019 0.1082172,-0.175098 -0.1571705,-0.27962 -0.7099697,-0.27962 -0.9307433,0 -2.0588605,-0.616427 -2.0588605,-1.125005 0,-0.165687 0.3199315,-0.635185 0.7109592,-1.04333 0.8550381,-0.892466 0.2796275,-1.048902 -0.7831561,-0.212916 -0.7908025,0.622045 -1.2336277,0.661179 -1.907331,0.168555 -0.4729877,-0.345858 -0.4574989,-0.424341 0.3786161,-1.918229 0.4794806,-0.85669 1.4008286,-2.304262 2.0474358,-3.216828 1.1362029,-1.603532 2.3495397,-3.967295 2.1426435,-4.174192 -0.055486,-0.05548 -0.8196712,0.543883 -1.6981937,1.331927 -1.4973671,1.343157 -3.3767713,4.044191 -4.8350911,6.948872 -0.5705317,1.136387 -1.2368984,1.456113 -1.5164514,0.727604 -0.08376,-0.218281 -0.253447,-0.396875 -0.377074,-0.396875 -0.123629,0 -0.735967,-0.479892 -1.360754,-1.066426 -2.762372,-2.593241 -6.433106,-4.069792 -12.38077,-4.980158 -1.964531,-0.300697 -5.536406,-0.849 -7.9375,-1.218451 -5.188556,-0.798352 -8.649224,-1.196489 -10.425904,-1.199461 -1.281062,-0.0021 -1.291608,0.0046 -0.818888,0.526995 0.471266,0.520742 0.46213,0.529167 -0.573637,0.529167 -0.578893,0 -2.532111,0.415989 -4.340487,0.92442 -1.808377,0.508431 -4.199023,1.179337 -5.312545,1.490901 -1.778805,0.497711 -2.041465,0.650873 -2.163617,1.261636 -0.118684,0.593416 -0.713,0.977437 -4.060831,2.623927 -3.486327,1.714603 -4.220477,2.198999 -6.611649,4.362382 -4.611767,4.172446 -9.237353,9.777676 -11.066994,13.410858 -1.091827,2.168083 -3.190677,7.214346 -3.738742,8.989065 -0.625412,2.025182 -1.235404,9.584294 -1.023864,12.687882 0.202502,2.97097 0.526161,3.12648 0.806564,0.38754 0.198424,-1.9382 1.477216,-7.349296 2.34742,-9.932907 1.239502,-3.680047 4.430022,-8.732468 5.094685,-8.067805 0.108844,0.108844 0.08305,0.352973 -0.05733,0.542504 -1.561168,2.107891 -3.155952,5.361107 -4.524697,9.229988 -0.582573,1.646695 -1.939158,9.17904 -1.945527,10.8024 -0.0024,0.59298 0.09014,0.67316 0.652315,0.5657 0.490521,-0.0938 0.68903,-0.33374 0.790429,-0.9555 0.575056,-3.52623 0.771478,-4.4048 1.206008,-5.394343 0.480335,-1.093851 1.052706,-1.50303 1.052706,-0.752557 0,0.296584 -0.873244,4.69944 -2.025288,10.21141 -0.132149,0.63227 -0.113943,0.62643 0.41261,-0.13229 0.302972,-0.43656 0.551643,-0.95027 0.552601,-1.14158 0.0011,-0.1913 0.257844,-0.94315 0.570859,-1.67077 0.377886,-0.87842 0.638728,-1.2103 0.776291,-0.98772 0.113948,0.18437 0.148476,0.4302 0.07673,0.54629 -0.07175,0.11609 7.94e-4,0.21107 0.161348,0.21107 0.160488,0 0.264649,-0.14883 0.231471,-0.33073 -0.03318,-0.1819 0.248811,-1.28607 0.626649,-2.45372 0.377836,-1.16765 0.77143,-2.5964 0.874655,-3.175003 0.359039,-2.012524 1.710825,-4.549664 1.710825,-3.211015 0,0.458216 -2.781679,11.189178 -3.150098,12.152218 -0.154186,0.40304 -0.46578,1.53243 -0.692438,2.50975 -0.226655,0.97732 -0.645433,2.17241 -0.930616,2.65577 -0.612654,1.03837 -0.630286,1.34007 -0.117893,2.01723 0.361584,0.47786 0.416313,0.43193 0.945798,-0.79375 1.659038,-3.84041 3.472973,-7.30302 3.704502,-7.07149 0.241176,0.24117 -2.123217,6.23078 -2.690468,6.81564 -0.777851,0.80199 0.487219,2.48571 1.601845,2.13194 0.274231,-0.087 0.859589,-0.79789 1.300798,-1.57967 0.441211,-0.78178 0.926632,-1.49832 1.078712,-1.59232 0.488746,-0.30206 0.588753,0.58329 0.159625,1.41313 -0.465055,0.89932 -0.5432,1.46977 -0.169717,1.23895 0.505339,-0.31232 0.515197,0.33274 0.01204,0.78809 -0.696106,0.62997 -0.661186,0.83531 0.219506,1.29074 0.679485,0.35137 0.769408,0.34073 1.060574,-0.1255 0.271357,-0.43451 0.638821,-0.51078 2.498712,-0.51866 7.185689,-0.0304 14.372715,-3.43194 23.169042,-10.9656 1.648243,-1.41165 3.069256,-2.49418 3.157807,-2.40562 0.415549,0.41554 -6.342248,6.39531 -9.609061,8.50276 -2.318811,1.49588 -6.246913,3.54594 -8.11249,4.23387 -2.82081,1.04016 -6.227538,1.97246 -7.794064,2.13296 -1.397479,0.14317 -1.646166,0.23715 -1.360927,0.51425 0.885278,0.86005 4.047662,1.13082 7.066722,0.60507 z"
         style="fill:#d45500;stroke-width:0.26458335"
         inkscape:connector-curvature="0" />
      <path
         id="path8030"
         d="m -69.549239,116.82318 c 0.310957,-0.84059 0.901708,-0.9882 0.789295,-0.19721 -0.04863,0.34214 -0.296117,0.66167 -0.549979,0.71005 -0.377852,0.072 -0.421257,-0.021 -0.239316,-0.51284 z"
         style="fill:#000000;stroke-width:0.26458335"
         inkscape:connector-curvature="0" />
      <path
         id="path8028"
         d="m 52.375725,116.22361 0.73588,-0.63298 -1.018021,-0.42536 c -0.559912,-0.23395 -1.119775,-0.42536 -1.24414,-0.42536 -0.315283,0 -2.337541,-2.5957 -2.838146,-3.64295 -0.546888,-1.14407 -0.95555,-0.95274 -1.04371,0.48864 -0.07442,1.21674 0.0423,1.46542 1.743033,3.71377 1.301263,1.72025 2.413585,2.00075 3.665104,0.92424 z"
         style="fill:#ffffff;stroke-width:0.26458335"
         inkscape:connector-curvature="0" />
      <path
         id="path8026"
         d="m 54.693162,113.53039 c 0.741927,-0.74192 0.59381,-0.94531 -0.92919,-1.27589 -1.102241,-0.23926 -3.06039,-2.14931 -3.569155,-3.4815 -0.460708,-1.20634 -0.783336,-1.35844 -1.264266,-0.596 -0.394674,0.62569 0.539382,3.30721 1.521386,4.36765 0.572399,0.61812 1.1806,0.95525 2.011166,1.11481 1.721057,0.33063 1.773394,0.3276 2.230059,-0.12907 z"
         style="fill:#ffffff;stroke-width:0.26458335"
         inkscape:connector-curvature="0" />
      <path
         id="path8024"
         d="m -83.76401,107.90959 c -0.872694,-2.95685 -1.165823,-5.44489 -0.967753,-8.214131 0.100327,-1.402707 0.249308,-2.848033 0.33107,-3.211835 0.08176,-0.363802 0.05309,-0.572728 -0.0637,-0.464278 -0.282692,0.262493 -0.907513,4.481134 -0.914707,6.175874 -0.0094,2.22391 1.143487,8.90163 1.800423,10.42799 0.09395,0.21828 0.208132,-0.35503 0.253743,-1.27403 0.05489,-1.10593 -0.09357,-2.26894 -0.439078,-3.43959 z"
         style="fill:#d45500;fill-opacity:1;stroke-width:0.26458335"
         inkscape:connector-curvature="0" />
      <path
         id="path8022"
         d="m 10.262062,110.93004 c 0,-0.34697 -0.320469,-0.61349 -1.0352329,-0.86095 -1.1000237,-0.38083 -1.5133188,-0.28548 -0.9976485,0.2302 0.1721988,0.17219 0.3130894,0.53494 0.3130894,0.8061 0,0.39684 0.1677458,0.47684 0.8598958,0.4101 0.6392202,-0.0616 0.8598962,-0.21188 0.8598962,-0.58545 z"
         style="fill:#d45500;fill-opacity:1;stroke-width:0.26458335"
         inkscape:connector-curvature="0" />
      <path
         id="path8020"
         d="m 56.655749,109.81853 c 1.367999,-1.17096 1.892771,-2.14266 1.892771,-3.50477 0,-0.86121 -0.161578,-1.18594 -0.922568,-1.85409 -0.507412,-0.44552 -1.426988,-0.94585 -2.043501,-1.11187 -1.011219,-0.27229 -1.256493,-0.23535 -2.505922,0.37743 -1.881042,0.92255 -2.336914,1.80906 -1.932366,3.75776 0.347758,1.67514 1.29762,2.94382 2.320632,3.09954 1.728142,0.26305 2.093179,0.17565 3.190954,-0.764 z"
         style="fill:#ff7f00;fill-opacity:1;stroke-width:0.26458335"
         inkscape:connector-curvature="0" />
      <path
         id="path8018"
         d="m 10.658937,108.52217 c 0,-0.26693 -0.266986,-0.39688 -0.8153694,-0.39688 -0.653669,0 -1.1477017,-0.33894 -2.4911818,-1.70914 -1.6865282,-1.72007 -2.8271946,-2.31711 -3.3768162,-1.76749 -0.216445,0.21644 -0.1498679,0.45352 0.2508912,0.89344 0.3000348,0.32935 0.6836462,0.86671 0.8524716,1.19413 0.1688253,0.32742 0.5456343,0.59531 0.8373533,0.59531 0.291719,0 1.0316713,0.26745 1.6443378,0.59434 1.7921393,0.95619 3.0983135,1.20757 3.0983135,0.59629 z"
         style="fill:#d45500;fill-opacity:1;stroke-width:0.26458335"
         inkscape:connector-curvature="0" />
      <path
         id="path8005"
         d="m 10.658937,106.56782 c 0,-0.129 -0.357188,-0.28698 -0.7937503,-0.35105 -0.7890643,-0.11581 -1.0950178,0.15536 -0.4630209,0.41038 0.5522119,0.22282 1.2567712,0.18956 1.2567712,-0.0593 z"
         style="fill:#d45500;fill-opacity:1;stroke-width:0.26458335"
         inkscape:connector-curvature="0" />
    </g>
  </g>
</svg>
